# xmcd CD database file
#
# Track frame offsets:
#	150
#	16107
#	36305
#	52230
#	66710
#	90565
#	108295
#	125125
#	143472
#	159735
#
# Disc length: 2427 seconds
#
# Revision: 2
# Processed by: cddbd v1.5.1PL0 Copyright (c) Steve Scherf et al.
# Submitted via: CDex 1.51
#
DISCID=8d09790a
DTITLE=Art Farmer and Benny Golson - Meet the Jazztet
DYEAR=1960
DGENRE=Jazz
TTITLE0=Serenata
TTITLE1=It Ain't Necessarily So
TTITLE2=Avalon
TTITLE3=I Remember Clifford
TTITLE4=Blues March
TTITLE5=It's All Right With Me
TTITLE6=Park Avenue Petite
TTITLE7=Mox Nix
TTITLE8=Easy Living
TTITLE9=Killer Joe
EXTD=YEAR: 1960
EXTT0=
EXTT1=
EXTT2=
EXTT3=
EXTT4=
EXTT5=
EXTT6=
EXTT7=
EXTT8=
EXTT9=
PLAYORDER=
